
<svg width="100" height="160" viewBox="0 0 100 160" fill="none" xmlns="http://www.w3.org/2000/svg">
  <rect x="25" y="10" width="50" height="85" stroke="#333333" stroke-width="1.1" rx="0.5" />
  <g stroke="#333333" stroke-width="1.1" stroke-linecap="round" stroke-linejoin="round">
    <path d="M 25 62 C 30 58, 45 66, 50 62 C 55 58, 70 66, 75 62" />
    <path d="M 25 70 C 30 66, 45 74, 50 70 C 55 66, 70 74, 75 70" />
    <path d="M 25 78 C 30 74, 45 82, 50 78 C 55 74, 70 82, 75 78" />
    <path d="M 25 86 C 30 82, 45 90, 50 86 C 55 82, 70 90, 75 86" />
  </g>
  <text x="50" y="130" text-anchor="middle" fill="#333333" font-family="sans-serif" font-size="16" font-weight="300" letter-spacing="0.25em">澤物設計</text>
  <text x="50" y="150" text-anchor="middle" fill="#333333" font-family="sans-serif" font-size="6.5" font-weight="300" letter-spacing="0.12em">ZEWU INTERIOR DESIGN</text>
</svg>
